<svg width="32" height="32" viewBox="0 0 32 32" fill="none" xmlns="http://www.w3.org/2000/svg">
<g id="fluent:call-32-filled">
<path id="Vector" d="M12.9467 13.885L13.174 13.6765L15.3199 11.7086C15.32 11.7086 15.32 11.7085 15.32 11.7085C15.8338 11.2371 16.1952 10.6229 16.3576 9.94481C16.52 9.26667 16.4762 8.55547 16.2317 7.90241L12.9467 13.885ZM12.9467 13.885L13.031 14.1817C13.0816 14.3596 13.1357 14.5363 13.1936 14.7119C13.4652 15.5538 13.8218 16.3659 14.2579 17.1355L14.2579 17.1356L14.2619 17.1424C14.7104 17.9053 15.2354 18.6205 15.8287 19.277M12.9467 13.885L16.2317 7.90233L15.3147 5.45445C15.3147 5.45444 15.3147 5.45443 15.3147 5.45441C15.0172 4.66022 14.4279 4.00939 13.6671 3.63457C12.9063 3.25974 12.0312 3.18914 11.2202 3.43716C7.96249 4.43383 5.56206 7.41716 6.30486 10.8832L6.30486 10.8833C6.82948 13.3315 7.83339 16.4086 9.74012 19.6856L9.74068 19.6865C11.3381 22.446 13.3477 24.9452 15.7 27.0977C18.3275 29.4885 22.1287 28.9329 24.63 26.6013C25.244 26.0288 25.6166 25.2436 25.6718 24.4059C25.727 23.5682 25.4606 22.741 24.927 22.0928L24.9269 22.0928L23.2459 20.0508L23.2458 20.0507C22.8025 19.5119 22.2083 19.1179 21.5395 18.9193C20.8706 18.7206 20.1578 18.7264 19.4923 18.9359C19.4922 18.9359 19.4922 18.9359 19.4921 18.9359L16.7163 19.8109L16.4224 19.9035L16.2076 19.6826C16.0959 19.5679 15.9686 19.4323 15.8287 19.277M15.8287 19.277C15.8288 19.2771 15.8289 19.2772 15.829 19.2773L16.2 18.942L15.8284 19.2766C15.8285 19.2767 15.8286 19.2769 15.8287 19.277Z" stroke="black"/>
</g>
</svg>
